<svg width="1440" height="1585" viewBox="0 0 1440 1585" fill="none" xmlns="http://www.w3.org/2000/svg">
<g filter="url(#filter0_f_2_820)">
<ellipse cx="820.498" cy="1016.57" rx="477.858" ry="263.729" transform="rotate(-6.48121 820.498 1016.57)" fill="#C0F497"/>
</g>
<g filter="url(#filter1_f_2_820)">
<path d="M1156.31 854.222C1199.84 792.542 1202.33 745.464 1224.06 673.16C1265.99 533.591 1235.11 441.933 1284.95 304.988C1386.65 25.5594 1562.51 905.146 1312.37 1065.93C1155.12 1167.01 694.992 1191.24 833.705 1065.93C889.102 1015.89 942.122 1021.17 1004.69 980.441C1069.25 938.406 1111.88 917.167 1156.31 854.222Z" fill="url(#paint0_linear_2_820)"/>
</g>
<g filter="url(#filter2_f_2_820)">
<path d="M282.761 896.521C168.392 904.045 93.7476 946.262 21.1434 1044.48C-125.939 1243.46 733.406 1306.67 613.728 1088.07C538.268 950.239 428.846 886.909 282.761 896.521Z" fill="#C0F497"/>
</g>
<g filter="url(#filter3_f_2_820)">
<path d="M287.569 951.694C192.474 957.95 130.409 993.052 70.0399 1074.72C-52.2559 1240.17 662.27 1292.73 562.76 1110.96C500.017 996.359 409.035 943.702 287.569 951.694Z" fill="#2DDB81"/>
</g>
<defs>
<filter id="filter0_f_2_820" x="44.7455" y="448.974" width="1551.51" height="1135.18" filterUnits="userSpaceOnUse" color-interpolation-filters="sRGB">
<feFlood flood-opacity="0" result="BackgroundImageFix"/>
<feBlend mode="normal" in="SourceGraphic" in2="BackgroundImageFix" result="shape"/>
<feGaussianBlur stdDeviation="150" result="effect1_foregroundBlur_2_820"/>
</filter>
<filter id="filter1_f_2_820" x="557.982" y="0.567871" width="1132.45" height="1400.5" filterUnits="userSpaceOnUse" color-interpolation-filters="sRGB">
<feFlood flood-opacity="0" result="BackgroundImageFix"/>
<feBlend mode="normal" in="SourceGraphic" in2="BackgroundImageFix" result="shape"/>
<feGaussianBlur stdDeviation="125" result="effect1_foregroundBlur_2_820"/>
</filter>
<filter id="filter2_f_2_820" x="-295.851" y="595.571" width="1221.05" height="929.823" filterUnits="userSpaceOnUse" color-interpolation-filters="sRGB">
<feFlood flood-opacity="0" result="BackgroundImageFix"/>
<feBlend mode="normal" in="SourceGraphic" in2="BackgroundImageFix" result="shape"/>
<feGaussianBlur stdDeviation="150" result="effect1_foregroundBlur_2_820"/>
</filter>
<filter id="filter3_f_2_820" x="-144.091" y="750.904" width="916.391" height="674.24" filterUnits="userSpaceOnUse" color-interpolation-filters="sRGB">
<feFlood flood-opacity="0" result="BackgroundImageFix"/>
<feBlend mode="normal" in="SourceGraphic" in2="BackgroundImageFix" result="shape"/>
<feGaussianBlur stdDeviation="100" result="effect1_foregroundBlur_2_820"/>
</filter>
<linearGradient id="paint0_linear_2_820" x1="1242.2" y1="561.055" x2="1083.32" y2="1021.57" gradientUnits="userSpaceOnUse">
<stop stop-color="#2F2F2F"/>
<stop offset="1" stop-color="#696969"/>
</linearGradient>
</defs>
</svg>
