<svg width="100" height="22" viewBox="0 0 100 22" fill="none" xmlns="http://www.w3.org/2000/svg">
<path d="M24.1154 5.16096H26.4289V16.048H24.1154V5.16096Z" fill="white"/>
<path d="M27.7246 12.3185C27.7246 11.5352 27.9627 10.7696 28.4086 10.1186C28.8545 9.46768 29.4882 8.96072 30.2294 8.66202C30.9705 8.36331 31.7858 8.28631 32.5718 8.44077C33.3578 8.59524 34.0791 8.97421 34.6444 9.52966C35.2097 10.0851 35.5935 10.792 35.7471 11.5608C35.9007 12.3296 35.8172 13.1256 35.5072 13.8479C35.1972 14.5703 34.6747 15.1865 34.0058 15.6184C33.337 16.0503 32.5519 16.2785 31.7502 16.274C31.2185 16.2781 30.6912 16.1783 30.1994 15.9807C29.7076 15.7831 29.2611 15.4915 28.8862 15.1231C28.5113 14.7547 28.2154 14.3169 28.0159 13.8353C27.8164 13.3537 27.7174 12.838 27.7246 12.3185ZM33.5239 12.3185C33.5148 11.9808 33.404 11.6533 33.2054 11.3768C33.0067 11.1003 32.7291 10.8872 32.4071 10.7641C32.0851 10.6409 31.7331 10.6133 31.3951 10.6846C31.0571 10.7559 30.7482 10.923 30.5069 11.1649C30.2656 11.4069 30.1027 11.7129 30.0385 12.0449C29.9743 12.3768 30.0117 12.7199 30.1461 13.0311C30.2804 13.3424 30.5057 13.608 30.7938 13.7949C31.0818 13.9817 31.4199 14.0814 31.7656 14.0815C32.001 14.086 32.2349 14.043 32.4525 13.9552C32.6701 13.8674 32.8669 13.7367 33.0305 13.5712C33.194 13.4057 33.3209 13.2091 33.4032 12.9936C33.4854 12.778 33.5213 12.5482 33.5085 12.3185H33.5239Z" fill="white"/>
<path d="M44.9297 8.58902V15.6788C44.9297 18.1801 42.9247 19.2424 40.8964 19.2424C40.181 19.2998 39.4634 19.161 38.8244 18.8415C38.1854 18.522 37.6504 18.0347 37.2796 17.4342L39.2307 16.3342C39.3888 16.6457 39.6403 16.9026 39.9516 17.0709C40.263 17.2391 40.6195 17.3107 40.9735 17.276C41.1991 17.3032 41.428 17.2813 41.6439 17.2119C41.8598 17.1426 42.0573 17.0275 42.2224 16.8749C42.3874 16.7223 42.5159 16.5359 42.5986 16.3291C42.6814 16.1224 42.7163 15.9003 42.701 15.6788V14.9931C42.4318 15.312 42.0902 15.5652 41.7033 15.7326C41.3164 15.9001 40.8949 15.977 40.4723 15.9575C39.4496 15.9575 38.4688 15.5606 37.7457 14.8542C37.0226 14.1477 36.6163 13.1895 36.6163 12.1904C36.6163 11.1913 37.0226 10.2331 37.7457 9.52664C38.4688 8.82016 39.4496 8.42327 40.4723 8.42327C40.8949 8.40375 41.3164 8.48074 41.7033 8.64814C42.0902 8.81554 42.4318 9.06875 42.701 9.38766V8.63423L44.9297 8.58902ZM42.701 12.1678C42.7164 11.8073 42.6211 11.4506 42.4273 11.1435C42.2335 10.8364 41.9501 10.593 41.6135 10.4445C41.277 10.296 40.9026 10.2493 40.5387 10.3103C40.1747 10.3713 39.8378 10.5373 39.5712 10.7869C39.3045 11.0366 39.1204 11.3584 39.0426 11.7111C38.9647 12.0637 38.9965 12.4311 39.1341 12.7659C39.2716 13.1007 39.5085 13.3877 39.8143 13.5899C40.1201 13.7921 40.4809 13.9004 40.8502 13.9007C41.0911 13.9176 41.333 13.885 41.5603 13.805C41.7876 13.7249 41.9951 13.5991 42.1695 13.4358C42.344 13.2725 42.4814 13.0753 42.5729 12.8569C42.6645 12.6385 42.7081 12.4037 42.701 12.1678Z" fill="white"/>
<path d="M46.2328 12.3185C46.2328 11.5358 46.4705 10.7708 46.9157 10.1202C47.3609 9.46952 47.9937 8.96254 48.734 8.66338C49.4742 8.36422 50.2887 8.28633 51.0743 8.43956C51.8599 8.5928 52.5813 8.97027 53.1472 9.52421C53.7131 10.0781 54.0981 10.7837 54.2534 11.5514C54.4088 12.3192 54.3275 13.1148 54.0199 13.8374C53.7123 14.56 53.1921 15.1773 52.5253 15.611C51.8585 16.0447 51.0749 16.2755 50.2738 16.274C49.7411 16.279 49.2126 16.1801 48.7195 15.983C48.2264 15.7859 47.7785 15.4946 47.4021 15.1262C47.0258 14.7578 46.7285 14.3197 46.5277 13.8375C46.3269 13.3554 46.2266 12.839 46.2328 12.3185ZM52.0321 12.3185C52.023 11.9805 51.912 11.6526 51.713 11.376C51.514 11.0993 51.2359 10.8862 50.9135 10.7634C50.591 10.6405 50.2387 10.6133 49.9005 10.6852C49.5623 10.7571 49.2534 10.9249 49.0124 11.1676C48.7714 11.4103 48.6091 11.7171 48.5458 12.0495C48.4825 12.3819 48.521 12.7252 48.6565 13.0363C48.792 13.3474 49.0185 13.6126 49.3076 13.7985C49.5967 13.9844 49.9355 14.0829 50.2816 14.0815C50.517 14.086 50.7508 14.043 50.9684 13.9552C51.1861 13.8674 51.3828 13.7366 51.5464 13.5712C51.71 13.4057 51.8368 13.2091 51.9191 12.9935C52.0013 12.778 52.0372 12.5482 52.0244 12.3185H52.0321Z" fill="white"/>
<path d="M55.3868 6.59247C55.3868 6.32723 55.4673 6.06794 55.6182 5.8474C55.769 5.62685 55.9834 5.45496 56.2342 5.35346C56.4851 5.25195 56.7611 5.2254 57.0274 5.27714C57.2936 5.32889 57.5382 5.45662 57.7302 5.64417C57.9222 5.83173 58.0529 6.07069 58.1059 6.33083C58.1589 6.59098 58.1317 6.86063 58.0278 7.10569C57.9239 7.35074 57.7479 7.56019 57.5222 7.70755C57.2965 7.85491 57.0311 7.93357 56.7596 7.93357C56.3967 7.92965 56.0499 7.7871 55.7933 7.53644C55.5368 7.28578 55.3909 6.94694 55.3868 6.59247ZM55.6105 8.58905H57.9241V16.048H55.6105V8.58905Z" fill="white"/>
<path d="M67.8263 12.3185C67.8523 12.8146 67.7775 13.3107 67.6064 13.7785C67.4353 14.2462 67.1712 14.6762 66.8293 15.0439C66.4874 15.4115 66.0745 15.7094 65.6143 15.9206C65.1541 16.1317 64.6557 16.2518 64.1478 16.274C63.7168 16.302 63.2848 16.2346 62.8842 16.0767C62.4836 15.9188 62.1247 15.6747 61.8342 15.3623V19.0466H59.5206V8.58905H61.8342V9.28973C62.1251 8.97834 62.4843 8.73526 62.8849 8.57869C63.2856 8.42212 63.7173 8.35612 64.1478 8.38562C64.6536 8.40788 65.15 8.52726 65.6087 8.73695C66.0673 8.94664 66.4792 9.24254 66.8208 9.60774C67.1624 9.97294 67.427 10.4003 67.5995 10.8654C67.7721 11.3305 67.8491 11.8243 67.8263 12.3185ZM65.5128 12.3185C65.5036 11.9686 65.389 11.6291 65.1832 11.3425C64.9775 11.056 64.6897 10.8351 64.356 10.7077C64.0223 10.5802 63.6575 10.5518 63.3073 10.6261C62.9572 10.7003 62.6373 10.8739 62.3877 11.125C62.1381 11.3761 61.9699 11.6936 61.9042 12.0378C61.8385 12.3819 61.8782 12.7373 62.0184 13.0594C62.1586 13.3815 62.393 13.6561 62.6922 13.8486C62.9914 14.0412 63.3422 14.1432 63.7005 14.1418C63.9459 14.152 64.1907 14.1113 64.4189 14.0226C64.6472 13.9338 64.8536 13.799 65.0247 13.6268C65.1958 13.4546 65.3278 13.2491 65.4119 13.0236C65.496 12.7981 65.5304 12.5579 65.5128 12.3185Z" fill="white"/>
<path d="M74.8675 13.8103C74.8675 15.5281 73.3251 16.2589 71.6902 16.2589C71.0234 16.3175 70.3539 16.1794 69.7682 15.8625C69.1825 15.5455 68.7077 15.0642 68.4049 14.4808L70.3946 13.3808C70.4734 13.6496 70.6443 13.8839 70.8788 14.0443C71.1132 14.2048 71.3969 14.2818 71.6825 14.2623C72.23 14.2623 72.5076 14.0966 72.5076 13.7952C72.5076 12.974 68.7519 13.4109 68.7519 10.8267C68.7519 9.1993 70.1555 8.3856 71.7442 8.3856C72.348 8.35918 72.9479 8.49303 73.4802 8.77293C74.0125 9.05283 74.4572 9.46834 74.7672 9.97532L72.7775 11C72.6897 10.8056 72.546 10.6403 72.364 10.524C72.182 10.4076 71.9694 10.3453 71.7519 10.3445C71.3508 10.3445 71.1118 10.4952 71.1118 10.7589C71.1118 11.6178 74.8675 11.0527 74.8675 13.8103Z" fill="white"/>
<path d="M83.2499 8.58904V16.0479H80.9364V15.3473C80.6736 15.6574 80.3398 15.9029 79.962 16.0638C79.5843 16.2248 79.1731 16.2968 78.7616 16.274C77.2192 16.274 75.9005 15.1966 75.9005 13.1849V8.58904H78.2141V12.8459C78.1959 13.0239 78.2175 13.2036 78.2773 13.3726C78.3372 13.5416 78.4338 13.6959 78.5607 13.8249C78.6876 13.9538 78.8416 14.0543 79.0121 14.1194C79.1826 14.1846 79.3655 14.2127 79.5482 14.2021C80.3811 14.2021 80.9672 13.7199 80.9672 12.6952V8.58904H83.2499Z" fill="white"/>
<path d="M96.3601 11.4671V16.0479H94.0465V11.663C94.0465 10.9096 93.684 10.4425 92.9514 10.4425C92.2188 10.4425 91.7561 10.9623 91.7561 11.8438V16.0479H89.4425V11.663C89.4425 10.9096 89.08 10.4425 88.3474 10.4425C87.6148 10.4425 87.1521 10.9623 87.1521 11.8438V16.0479H84.8385V8.58904H87.1521V9.27465C87.3916 8.97175 87.7045 8.73187 88.0627 8.57666C88.4208 8.42145 88.8128 8.35579 89.2034 8.38561C89.5947 8.36568 89.9846 8.44548 90.3347 8.6172C90.6849 8.78891 90.9834 9.04664 91.2008 9.36507C91.4549 9.03238 91.7912 8.76805 92.1783 8.59677C92.5654 8.42549 92.9905 8.35284 93.4141 8.38561C95.2187 8.38561 96.3601 9.60616 96.3601 11.4671Z" fill="white"/>
<path d="M10.334 3.20206V0H0.00012207V22H10.334V18.7979C8.21714 18.7979 6.18694 17.9764 4.69006 16.514C3.19318 15.0516 2.35225 13.0681 2.35225 11C2.35225 8.93186 3.19318 6.94842 4.69006 5.48602C6.18694 4.02362 8.21714 3.20206 10.334 3.20206Z" fill="white"/>
<path d="M10.3341 3.20206V18.7979C12.451 18.7979 14.4812 17.9764 15.9781 16.514C17.475 15.0516 18.3159 13.0681 18.3159 11C18.3159 8.93186 17.475 6.94842 15.9781 5.48602C14.4812 4.02362 12.451 3.20206 10.3341 3.20206Z" fill="white"/>
<path d="M98.3037 8.54384C99.2407 8.54384 100 7.80174 100 6.88631C100 5.97088 99.2407 5.22878 98.3037 5.22878C97.3667 5.22878 96.6071 5.97088 96.6071 6.88631C96.6071 7.80174 97.3667 8.54384 98.3037 8.54384Z" fill="white"/>
</svg>
