<svg width="100" height="20" viewBox="0 0 100 20" fill="none" xmlns="http://www.w3.org/2000/svg">
<path d="M15.0015 8.77742C14.7221 9.06339 14.5082 9.40852 14.3749 9.78823C14.2416 10.1679 14.1922 10.5729 14.2304 10.9742L14.2171 10.9607C14.2563 11.4331 14.1937 11.9085 14.0336 12.3537C13.8736 12.799 13.62 13.2033 13.2905 13.5385C12.961 13.8738 12.5635 14.1318 12.1259 14.2946C11.6882 14.4574 11.221 14.5211 10.7566 14.4813L10.7699 14.4948C10.2145 14.4422 9.6566 14.5651 9.17237 14.8469C8.68815 15.1287 8.30114 15.5555 8.0641 16.0693C7.82706 16.583 7.75154 17.1586 7.84783 17.7176C7.94412 18.2766 8.20754 18.7918 8.60217 19.1929C8.9968 19.594 9.50342 19.8615 10.053 19.959C10.6025 20.0565 11.1682 19.9791 11.673 19.7375C12.1777 19.4959 12.597 19.1018 12.8735 18.6089C13.15 18.116 13.2704 17.5483 13.2182 16.9833L13.2322 16.9968C13.193 16.5244 13.2556 16.049 13.4156 15.6038C13.5757 15.1585 13.8293 14.7542 14.1588 14.419C14.4883 14.0837 14.8858 13.8257 15.3234 13.6629C15.761 13.5001 16.2283 13.4364 16.6927 13.4763L16.6787 13.4627C17.1324 13.5043 17.5891 13.4286 18.0064 13.2427C18.4237 13.0569 18.7881 12.7668 19.0659 12.3995C19.3437 12.0322 19.5259 11.5995 19.5956 11.1415C19.6652 10.6835 19.6201 10.215 19.4644 9.77947C19.3087 9.34392 19.0474 8.95541 18.7048 8.64994C18.3623 8.34446 17.9494 8.13191 17.5046 8.03198C17.0597 7.93206 16.5973 7.94799 16.1601 8.07829C15.723 8.2086 15.3252 8.44907 15.0037 8.77742H15.0015Z" fill="white"/>
<path d="M9.5628 12.7262L9.54879 12.7127C9.94345 12.7532 10.342 12.7039 10.7156 12.5684C11.0893 12.433 11.4287 12.2148 11.7092 11.9295C11.9898 11.6443 12.2046 11.2992 12.338 10.9192C12.4714 10.5391 12.5202 10.1337 12.4807 9.73217L12.4947 9.74567C12.4555 9.27328 12.5181 8.79787 12.6782 8.35263C12.8382 7.90739 13.0918 7.50305 13.4213 7.16783C13.7508 6.83261 14.1483 6.57458 14.5859 6.41176C15.0235 6.24893 15.4908 6.18524 15.9552 6.22511L15.9412 6.21161C16.4966 6.26468 17.0547 6.14214 17.5392 5.86068C18.0237 5.57923 18.4111 5.15258 18.6485 4.63892C18.8859 4.12526 18.9617 3.5496 18.8657 2.99046C18.7697 2.43132 18.5065 1.91592 18.112 1.51457C17.7175 1.11321 17.2109 0.845429 16.6613 0.747756C16.1117 0.650082 15.5458 0.727267 15.041 0.968785C14.5361 1.2103 14.1167 1.60439 13.84 2.09731C13.5634 2.59022 13.4429 3.15795 13.4951 3.72307L13.4818 3.70882C13.5212 4.18125 13.4586 4.65671 13.2986 5.10201C13.1386 5.54731 12.885 5.95171 12.5555 6.28696C12.226 6.62221 11.8285 6.88023 11.3908 7.04301C10.9531 7.20579 10.4857 7.26939 10.0213 7.22938L10.0346 7.24363C9.63997 7.20318 9.24141 7.25245 8.86777 7.3879C8.49413 7.52335 8.15475 7.74159 7.87417 8.02682C7.59359 8.31206 7.37883 8.65716 7.24541 9.03718C7.11199 9.41721 7.06325 9.82265 7.10272 10.2242L7.08945 10.2107C7.12852 10.683 7.06582 11.1584 6.90573 11.6036C6.74564 12.0488 6.49201 12.453 6.16254 12.7882C5.83306 13.1234 5.43568 13.3815 4.9981 13.5443C4.56051 13.7072 4.09328 13.771 3.62897 13.7312L3.64224 13.7447C3.08676 13.6917 2.52872 13.8142 2.04422 14.0957C1.55972 14.3771 1.17235 14.8038 0.934954 15.3174C0.697558 15.8311 0.621688 16.4068 0.717695 16.9659C0.813702 17.525 1.07691 18.0404 1.47142 18.4418C1.86593 18.8431 2.37253 19.1109 2.92213 19.2086C3.47173 19.3063 4.03756 19.2291 4.54246 18.9876C5.04735 18.7461 5.46672 18.352 5.74337 17.859C6.02002 17.3661 6.14048 16.7984 6.08831 16.2333L6.10232 16.2468C6.06312 15.7744 6.12573 15.299 6.28578 14.8537C6.44582 14.4085 6.69945 14.0042 7.02895 13.6689C7.35845 13.3337 7.75589 13.0757 8.19353 12.9129C8.63117 12.75 9.09847 12.6863 9.5628 12.7262Z" fill="white"/>
<path d="M4.62225 11.2209C4.90167 10.935 5.1156 10.5899 5.24877 10.2101C5.38194 9.83038 5.43107 9.42542 5.39264 9.02413L5.40665 9.03763C5.36742 8.5651 5.43006 8.08955 5.59019 7.6442C5.75032 7.19884 6.00408 6.79442 6.33375 6.45917C6.66342 6.12392 7.06105 5.86593 7.49887 5.70321C7.93669 5.54049 8.40415 5.47696 8.8686 5.51707L8.8546 5.50357C9.40988 5.5565 9.9677 5.43388 10.452 5.15245C10.9362 4.87101 11.3234 4.44446 11.5607 3.93096C11.7979 3.41746 11.8737 2.84201 11.7777 2.28308C11.6817 1.72415 11.4186 1.20895 11.0242 0.807742C10.6299 0.40653 10.1234 0.138836 9.57405 0.0411669C9.02466 -0.0565026 8.45903 0.0206068 7.95429 0.261979C7.44955 0.503351 7.03028 0.897234 6.75365 1.38992C6.47702 1.8826 6.3565 2.4501 6.40852 3.01503L6.39525 3.00153C6.43445 3.47392 6.37184 3.94933 6.21179 4.39457C6.05175 4.83981 5.79813 5.24415 5.46862 5.57937C5.13912 5.9146 4.74168 6.17262 4.30404 6.33545C3.8664 6.49827 3.39911 6.56196 2.93477 6.52209L2.94804 6.53559C2.49434 6.4942 2.03771 6.56998 1.62046 6.75593C1.20321 6.94187 0.838843 7.23195 0.561127 7.5993C0.283411 7.96664 0.101328 8.39936 0.0317537 8.85735C-0.0378211 9.31535 0.007362 9.7838 0.163117 10.2193C0.318871 10.6548 0.580158 11.0433 0.922763 11.3487C1.26537 11.6541 1.67821 11.8666 2.12303 11.9665C2.56784 12.0664 3.03025 12.0504 3.46739 11.9201C3.90453 11.7897 4.30226 11.5493 4.62373 11.2209H4.62225Z" fill="white"/>
<path d="M27.459 3.74028H29.6485V14.5802H27.459V3.74028Z" fill="white"/>
<path d="M30.8888 10.8684C30.8857 10.0894 31.11 9.32701 31.5331 8.67778C31.9563 8.02855 32.5594 7.5217 33.2659 7.22143C33.9724 6.92115 34.7507 6.84097 35.502 6.99104C36.2534 7.1411 36.9441 7.51465 37.4866 8.06438C38.0291 8.61411 38.3991 9.31529 38.5496 10.0791C38.7001 10.8429 38.6244 11.635 38.3321 12.355C38.0398 13.075 37.544 13.6905 36.9076 14.1236C36.2711 14.5567 35.5226 14.788 34.7569 14.788C34.2487 14.7939 33.7443 14.6966 33.2734 14.5019C32.8025 14.3072 32.3745 14.019 32.0143 13.6541C31.6542 13.2891 31.3691 12.8548 31.1759 12.3765C30.9826 11.8982 30.885 11.3855 30.8888 10.8684ZM36.4356 10.8684C36.4264 10.5326 36.3202 10.207 36.1302 9.93233C35.9402 9.65763 35.6748 9.44602 35.3672 9.32394C35.0596 9.20186 34.7234 9.17474 34.4008 9.24597C34.0781 9.31719 33.7832 9.4836 33.553 9.72439C33.3228 9.96518 33.1675 10.2697 33.1064 10.5998C33.0454 10.9299 33.0813 11.271 33.2098 11.5804C33.3383 11.8899 33.5536 12.1539 33.8287 12.3396C34.1039 12.5252 34.4268 12.6242 34.7569 12.6242C34.9831 12.6303 35.208 12.5887 35.4175 12.502C35.627 12.4153 35.8166 12.2854 35.9744 12.1204C36.1321 11.9555 36.2545 11.7591 36.3339 11.5436C36.4132 11.3281 36.4479 11.0982 36.4356 10.8684Z" fill="white"/>
<path d="M47.3512 7.15586V14.206C47.3512 16.7005 45.4388 17.755 43.4977 17.755C42.8143 17.8071 42.13 17.6666 41.5198 17.3491C40.9097 17.0316 40.3972 16.5493 40.0387 15.955L41.9068 14.8562C42.0575 15.166 42.2976 15.4216 42.595 15.5887C42.8923 15.7558 43.2328 15.8266 43.5707 15.7915C43.7867 15.822 44.0067 15.8026 44.2144 15.7349C44.422 15.6672 44.612 15.5528 44.7704 15.4003C44.9287 15.2478 45.0514 15.061 45.1292 14.8537C45.207 14.6465 45.238 14.4241 45.2199 14.203V13.5242C44.9635 13.8434 44.6371 14.0969 44.267 14.2646C43.8969 14.4322 43.4933 14.5092 43.0886 14.4895C42.1256 14.4586 41.2123 14.0477 40.5419 13.3438C39.8715 12.6399 39.4966 11.6982 39.4966 10.718C39.4966 9.73789 39.8715 8.7962 40.5419 8.09229C41.2123 7.38839 42.1256 6.9775 43.0886 6.9466C43.4933 6.92685 43.8969 7.00388 44.267 7.17151C44.6371 7.33914 44.9635 7.59271 45.2199 7.91187V7.15436L47.3512 7.15586ZM45.2206 10.7192C45.2353 10.3602 45.1441 10.0049 44.9587 9.69913C44.7733 9.39333 44.5021 9.15098 44.1802 9.00327C43.8582 8.85557 43.5002 8.80926 43.1522 8.87032C42.8041 8.93137 42.482 9.09699 42.2273 9.34586C41.9726 9.59474 41.7969 9.91547 41.7228 10.2668C41.6488 10.6181 41.6798 10.9839 41.8118 11.3172C41.9439 11.6504 42.1709 11.9358 42.4638 12.1367C42.7566 12.3375 43.1018 12.4446 43.455 12.4442C43.685 12.4605 43.9159 12.4277 44.1327 12.3477C44.3495 12.2678 44.5475 12.1425 44.7138 11.98C44.8801 11.8175 45.0111 11.6213 45.0984 11.4042C45.1857 11.187 45.2274 10.9537 45.2206 10.7192Z" fill="white"/>
<path d="M48.5909 10.8684C48.5879 10.0894 48.8121 9.32701 49.2353 8.67778C49.6585 8.02855 50.2615 7.5217 50.968 7.22143C51.6746 6.92115 52.4528 6.84097 53.2042 6.99104C53.9556 7.1411 54.6462 7.51465 55.1888 8.06438C55.7313 8.61411 56.1012 9.31529 56.2517 10.0791C56.4023 10.8429 56.3266 11.635 56.0343 12.355C55.7419 13.075 55.2462 13.6905 54.6097 14.1236C53.9733 14.5567 53.2248 14.788 52.4591 14.788C51.9508 14.7939 51.4465 14.6966 50.9756 14.5019C50.5047 14.3072 50.0766 14.019 49.7165 13.6541C49.3563 13.2891 49.0713 12.8548 48.878 12.3765C48.6848 11.8982 48.5872 11.3855 48.5909 10.8684ZM54.1377 10.8684C54.1286 10.5326 54.0224 10.207 53.8323 9.93233C53.6423 9.65763 53.3769 9.44602 53.0693 9.32394C52.7617 9.20186 52.4256 9.17474 52.1029 9.24597C51.7802 9.31719 51.4854 9.4836 51.2552 9.72439C51.0249 9.96518 50.8696 10.2697 50.8086 10.5998C50.7475 10.9299 50.7835 11.271 50.912 11.5804C51.0404 11.8899 51.2557 12.1539 51.5309 12.3396C51.8061 12.5252 52.1289 12.6242 52.4591 12.6242C52.6852 12.6303 52.9101 12.5887 53.1197 12.502C53.3292 12.4153 53.5188 12.2854 53.6765 12.1204C53.8342 11.9555 53.9566 11.7591 54.036 11.5436C54.1154 11.3281 54.15 11.0982 54.1377 10.8684Z" fill="white"/>
<path d="M57.3486 5.16607C57.3486 4.90173 57.4257 4.64333 57.57 4.42354C57.7144 4.20375 57.9196 4.03244 58.1596 3.93128C58.3997 3.83012 58.6638 3.80366 58.9186 3.85523C59.1735 3.9068 59.4076 4.03409 59.5913 4.221C59.775 4.40792 59.9001 4.64606 59.9508 4.90532C60.0015 5.16458 59.9755 5.43332 59.8761 5.67753C59.7766 5.92175 59.6082 6.13049 59.3922 6.27735C59.1762 6.4242 58.9222 6.50259 58.6623 6.50259C58.315 6.49907 57.9829 6.35713 57.7372 6.10725C57.4916 5.85736 57.3521 5.51945 57.3486 5.16607ZM57.5698 7.15585H59.7601V14.581H57.5668L57.5698 7.15585Z" fill="white"/>
<path d="M69.2139 10.8684C69.2392 11.3591 69.1689 11.8501 69.007 12.3131C68.8452 12.7761 68.595 13.2019 68.2708 13.5662C67.9466 13.9305 67.5548 14.2259 67.118 14.4356C66.6811 14.6453 66.2079 14.765 65.7254 14.788C65.3196 14.8105 64.914 14.7409 64.538 14.5842C64.162 14.4275 63.825 14.1876 63.5513 13.882V17.5503H61.3618V7.15586H63.5513V7.85337C63.8251 7.54795 64.1622 7.30828 64.5382 7.15171C64.9142 6.99514 65.3197 6.9256 65.7254 6.94811C66.208 6.97096 66.6813 7.09067 67.1183 7.30037C67.5552 7.51006 67.947 7.80559 68.2713 8.16995C68.5955 8.53431 68.8457 8.9603 69.0075 9.42342C69.1692 9.88653 69.2394 10.3776 69.2139 10.8684ZM67.0244 10.8684C67.0158 10.5209 66.9067 10.1837 66.7107 9.89899C66.5147 9.61426 66.2405 9.39468 65.9224 9.26772C65.6043 9.14076 65.2565 9.11206 64.9225 9.18522C64.5885 9.25838 64.2831 9.43014 64.0445 9.67901C63.806 9.92788 63.6449 10.2428 63.5814 10.5844C63.5179 10.9259 63.5549 11.2789 63.6876 11.5992C63.8204 11.9195 64.043 12.1929 64.3277 12.3851C64.6124 12.5773 64.9465 12.6797 65.2882 12.6797C65.5228 12.6903 65.7569 12.6504 65.9753 12.5625C66.1936 12.4746 66.3912 12.3408 66.5551 12.1697C66.7191 11.9987 66.8456 11.7944 66.9265 11.5701C67.0073 11.3458 67.0407 11.1067 67.0244 10.8684Z" fill="white"/>
<path d="M75.9703 12.3527C75.9703 14.0605 74.5114 14.788 72.9352 14.788C72.2984 14.8467 71.6589 14.7097 71.0994 14.3946C70.5399 14.0796 70.0862 13.6011 69.7969 13.021L71.6937 11.9222C71.7705 12.1904 71.9353 12.4236 72.1607 12.5831C72.3861 12.7425 72.6584 12.8184 72.9322 12.7982C73.4571 12.7982 73.7203 12.6347 73.7203 12.3385C73.7203 11.5209 70.1294 11.9522 70.1294 9.3834C70.1294 7.76413 71.4726 6.94811 72.9905 6.94811C73.5611 6.92974 74.1261 7.06744 74.6266 7.34684C75.1272 7.62624 75.5448 8.03712 75.8361 8.53664L73.968 9.56116C73.8861 9.36667 73.7497 9.20101 73.5759 9.08484C73.4021 8.96868 73.1985 8.90713 72.9905 8.90789C72.6108 8.90789 72.3771 9.0579 72.3771 9.3234C72.3801 10.1702 75.9703 9.60541 75.9703 12.3527Z" fill="white"/>
<path d="M83.9684 7.15587V14.581H81.7788V13.8827C81.5263 14.1908 81.2055 14.4336 80.8428 14.5911C80.4802 14.7486 80.0859 14.8163 79.6925 14.7887C78.2181 14.7887 76.9648 13.72 76.9648 11.7137V7.15587H79.1544V11.3874C79.1361 11.5643 79.1558 11.7431 79.2123 11.9113C79.2688 12.0796 79.3607 12.2333 79.4815 12.3618C79.6023 12.4903 79.7492 12.5905 79.912 12.6554C80.0747 12.7202 80.2494 12.7482 80.4239 12.7375C81.2267 12.7375 81.7811 12.2627 81.7811 11.2082V7.15812L83.9684 7.15587Z" fill="white"/>
<path d="M96.5235 10.0216V14.5802H94.334V10.2144C94.334 9.47188 93.9838 8.99712 93.2835 8.99712C92.5536 8.99712 92.1445 9.51688 92.1445 10.3929V14.5802H89.9557V10.2144C89.9557 9.47188 89.6055 8.99712 88.9044 8.99712C88.1746 8.99712 87.7662 9.51688 87.7662 10.3929V14.5802H85.5767V7.15509H87.7662V7.8376C87.9931 7.53481 88.2911 7.29469 88.6327 7.13918C88.9744 6.98366 89.3489 6.91771 89.722 6.94734C90.0967 6.92869 90.4697 7.00912 90.8047 7.18079C91.1397 7.35245 91.4253 7.60949 91.6336 7.92685C91.8762 7.59484 92.1976 7.33084 92.5678 7.15954C92.9379 6.98824 93.3447 6.91523 93.7502 6.94734C95.4258 6.94809 96.5235 8.16536 96.5235 10.0216Z" fill="white"/>
<path d="M98.3753 7.11007C99.2727 7.11007 100 6.36998 100 5.45704C100 4.5441 99.2727 3.80402 98.3753 3.80402C97.4779 3.80402 96.7505 4.5441 96.7505 5.45704C96.7505 6.36998 97.4779 7.11007 98.3753 7.11007Z" fill="white"/>
</svg>
